<?xml version="1.0" standalone="no"?>
<!DOCTYPE svg PUBLIC "-//W3C//DTD SVG 20010904//EN"
 "http://www.w3.org/TR/2001/REC-SVG-20010904/DTD/svg10.dtd">
<svg version="1.0" xmlns="http://www.w3.org/2000/svg"
 width="984.000000pt" height="984.000000pt" viewBox="0 0 984.000000 984.000000"
 preserveAspectRatio="xMidYMid meet">
<metadata>
Created by potrace 1.11, written by Peter Selinger 2001-2013
</metadata>
<g transform="translate(0.000000,984.000000) scale(0.100000,-0.100000)"
fill="#000000" stroke="none">
<path d="M4390 8080 c-1221 -119 -2173 -854 -2550 -1970 -27 -80 -56 -170 -64
-200 l-15 -55 -73 -19 c-426 -107 -807 -300 -1068 -540 -507 -467 -719 -1157
-574 -1876 64 -318 211 -641 413 -905 62 -82 231 -255 316 -325 238 -195 538
-334 880 -407 l130 -28 3005 0 3005 0 120 33 c657 181 1119 448 1440 833 330
396 503 962 482 1584 -18 517 -159 984 -407 1350 -354 519 -853 828 -1449 896
-99 11 -460 7 -571 -7 l-45 -5 -50 93 c-27 51 -91 154 -141 229 -480 722
-1229 1182 -2124 1304 -133 19 -534 28 -660 15z m516 -591 c386 -37 775 -171
1094 -377 297 -191 582 -488 753 -783 l27 -46 -202 -101 c-125 -62 -260 -138
-353 -200 -148 -99 -334 -242 -388 -300 l-28 -29 187 -214 c103 -118 190 -215
194 -217 4 -2 72 46 151 106 477 360 824 508 1265 542 356 27 689 -60 956
-250 253 -180 473 -485 576 -796 191 -579 131 -1280 -146 -1705 -216 -331
-598 -578 -1136 -734 l-157 -45 -2913 0 c-2884 0 -2915 0 -3015 20 -308 62
-542 188 -747 402 -202 212 -340 477 -406 781 -19 86 -22 134 -23 307 0 179 3
218 23 309 125 556 525 926 1186 1098 55 14 180 40 276 58 l175 32 17 84 c53
254 74 338 119 474 267 806 914 1375 1759 1545 80 16 186 33 235 38 129 13
393 14 521 1z"/>
</g>
</svg>
